<?xml version="1.0" encoding="utf-8"?>
<!-- Generator: Adobe Illustrator 19.0.1, SVG Export Plug-In . SVG Version: 6.00 Build 0)  -->
<svg version="1.1" xmlns="http://www.w3.org/2000/svg" xmlns:xlink="http://www.w3.org/1999/xlink" x="0px" y="0px"
	 viewBox="0 0 200 200" style="enable-background:new 0 0 200 200;" xml:space="preserve">
<style type="text/css">
	.st0{fill:#FFFFFF;}
	.st1{fill:#0033A0;}
	.st2{fill:#0099FF;}
	.st3{fill:#FFCD00;}
	.st4{fill:#97D700;}
	.st5{fill:#E40028;}
	.st6{fill:#E6E6E6;}
	.st7{fill:#EA7600;}
	.st8{fill:#007A33;}
	.st9{fill:#981D97;}
</style>
<g id="Layer_1">
</g>
<g id="Layer_2">
	<g>
		<path d="M79.5,81.4c-0.4,1.7-0.6,3.4-0.6,5.3c0,5.8,2.1,10.8,6.2,14.9s9.1,6.2,14.9,6.2s10.8-2.1,14.9-6.2s6.2-9.1,6.2-14.9
			c0-2-0.2-3.8-0.7-5.6C113.6,84,95.5,90,79.5,81.4z"/>
		<path d="M130.2,63.5c-1.5-0.1-3-0.1-4.5-0.3c-5.9-0.8-10.9-3.2-15.4-7.1c-1.9-1.6-3.7-3.2-5.7-4.7c-2.7-2-5.1-1.9-7.7,0.3
			c-1.3,1.1-2.5,2.3-3.7,3.5c-4.8,4.9-10.6,7.5-17.4,8.1c-1.5,0.1-2.9,0.2-4.4,0.3c-0.7,0-0.9,0.3-0.8,1c0.1,0.5,0.3,0.9,0.5,1.4
			c0.7,1.3,1.4,2.5,2.1,3.7c0.8,1.5,1.6,3.1,2.3,4.7c0.3,0.7,0.4,1.5,0.6,2.2c0.2,0,0.4-0.1,0.6-0.1c1.7-0.4,3.5-0.8,5.3-1.1
			c4.5-0.8,9.1-1.2,13.7-1.3c4.2-0.1,8.4-0.1,12.6,0.1c3.3,0.2,6.7,0.7,10,1.2c0.5,0.1,1.1,0.2,1.6,0.3c1,0.2,2,0.5,3,0.8
			c0.2-1.8,1.1-3.3,2.2-4.7c1.3-1.6,2.6-3.2,3.9-4.8c0.6-0.8,1.3-1.6,1.8-2.4C131.3,63.9,131.1,63.6,130.2,63.5z M104.6,69.1
			c-1,0.8-2.2,1.5-3.3,2.3c-0.2,0.1-0.6,0.1-0.8,0c-1.5-0.8-3-1.8-4.1-3.1c-0.7-0.8-1.1-1.6-1-2.7c0-0.4,0-0.7,0-1.1
			c0-1.3,0-2.6,0-4c3.7,0,7.3,0,11.1,0c0,0.8,0,1.6,0,2.4c0,0.5,0,1.1,0,1.6c0,0.2,0,0.3,0,0.5C106.6,66.8,105.8,68.1,104.6,69.1z"
			/>
		<path d="M119.7,77.4c-16.8-3.4-32.8-1.2-39.5,0c-2.1,0.4-3.4,0.7-3.4,0.7c0.9,0.6,1.8,1.1,2.6,1.6c16,8.6,34.1,2.5,40.9-0.3
			c1.7-0.7,2.7-1.3,2.7-1.3C122,77.9,120.9,77.6,119.7,77.4z"/>
		<g>
			<path d="M138.5,130.1c-0.1-1.9-0.4-3.8-0.8-6c-0.4-2.1-0.9-4.1-1.5-6c-0.6-1.8-1.4-3.6-2.4-5.4c-1-1.7-2.1-3.2-3.4-4.5
				c-1.3-1.2-2.8-2.2-4.7-2.9c-1.9-0.7-3.9-1.1-6.1-1.1c-0.3,0-1.1,0.4-2.3,1.2c-1.2,0.8-2.6,1.7-4.1,2.6c-1.5,1-3.5,1.9-5.9,2.6
				c-2.4,0.8-4.9,1.2-7.3,1.2c-2.7,0-4.7-0.3-7.3-1.2c-2.4-0.8-4.4-1.7-5.9-2.6c-1.5-1-2.9-1.9-4.1-2.6c-1.2-0.8-2-1.2-2.3-1.2
				c-2.2,0-4.3,0.4-6.1,1.1c-1.9,0.7-3.4,1.7-4.7,2.9c-1.3,1.2-2.4,2.7-3.4,4.5c-1,1.7-1.8,3.5-2.4,5.4c-0.6,1.8-1.1,3.8-1.5,6
				c-0.4,2.1-0.6,4.1-0.8,6c-0.1,1.9-0.2,3.7-0.2,5.7c0,4.4,1.3,7.9,4,10.4c2.7,2.5,6.2,3.8,10.7,3.8h48c4.4,0,8-1.3,10.7-3.8
				c2.7-2.5,4-6,4-10.4C138.7,133.8,138.6,131.9,138.5,130.1z M117.9,127.6c-0.1,1-0.8,1.7-1.5,2.2c-0.9,0.8-2,1.4-3,2.1
				c-0.2,0.1-0.5,0.1-0.7,0c-1.4-0.7-2.6-1.6-3.7-2.8c-0.6-0.7-0.9-1.4-0.9-2.4c0-1.5,0-3,0-4.5c3.3,0,6.6,0,9.8,0
				C117.9,124.1,118,125.9,117.9,127.6z"/>
		</g>
	</g>
</g>
</svg>
